<?xml version="1.0" encoding="utf-8"?>
<!-- Generator: Adobe Illustrator 26.0.0, SVG Export Plug-In . SVG Version: 6.00 Build 0)  -->
<svg version="1.1" id="Layer_1" xmlns="http://www.w3.org/2000/svg" xmlns:xlink="http://www.w3.org/1999/xlink" x="0px" y="0px"
	 viewBox="0 0 48 48" style="enable-background:new 0 0 48 48;" xml:space="preserve">
<style type="text/css">
	.st0{fill:#0F3963;}
	.st1{fill:#F27E00;}
</style>
<g>
	<g>
		
			<rect x="10.24" y="24.21" transform="matrix(0.661 -0.7504 0.7504 0.661 -15.8541 19.3078)" class="st0" width="6.4" height="5.98"/>
		
			<rect x="15.41" y="18.35" transform="matrix(0.661 -0.7504 0.7504 0.661 -9.7047 21.1951)" class="st0" width="6.4" height="5.98"/>
		
			<rect x="20.57" y="12.49" transform="matrix(0.661 -0.7504 0.7504 0.661 -3.5553 23.0823)" class="st0" width="6.4" height="5.98"/>
		
			<rect x="15.64" y="28.96" transform="matrix(0.661 -0.7504 0.7504 0.661 -17.5912 24.968)" class="st0" width="6.4" height="5.98"/>
		
			<rect x="20.8" y="23.1" transform="matrix(0.661 -0.7504 0.7504 0.661 -11.4418 26.8552)" class="st0" width="6.4" height="5.98"/>
		
			<rect x="25.97" y="17.24" transform="matrix(0.661 -0.7504 0.7504 0.661 -5.2924 28.7425)" class="st0" width="6.4" height="5.98"/>
		
			<rect x="21.03" y="33.72" transform="matrix(0.661 -0.7504 0.7504 0.661 -19.3283 30.6282)" class="st0" width="6.4" height="5.98"/>
		
			<rect x="26.2" y="27.85" transform="matrix(0.661 -0.7504 0.7504 0.661 -13.1789 32.5154)" class="st0" width="6.4" height="5.98"/>
		
			<rect x="31.36" y="21.99" transform="matrix(0.661 -0.7504 0.7504 0.661 -7.0295 34.4026)" class="st0" width="6.4" height="5.98"/>
	</g>
	<g>
		<g>
			<path class="st1" d="M29.68,16.01L29.68,16.01c0.41-0.84,0.64-1.78,0.64-2.77c0-3.49-2.83-6.32-6.32-6.32
				c-3.49,0-6.32,2.83-6.32,6.32c0,1.12,0.29,2.17,0.8,3.08L24,26.82v-7.27h0v7.27l5.51-10.5C29.57,16.22,29.62,16.12,29.68,16.01
				L29.68,16.01z M20.45,13.24c0-1.96,1.59-3.55,3.55-3.55s3.55,1.59,3.55,3.55c0,1.96-1.59,3.55-3.55,3.55S20.45,15.2,20.45,13.24z
				"/>
		</g>
	</g>
</g>
</svg>
