<?xml version="1.0" encoding="utf-8"?>
<!-- Generator: Adobe Illustrator 26.0.0, SVG Export Plug-In . SVG Version: 6.00 Build 0)  -->
<svg version="1.1" id="Layer_1" xmlns="http://www.w3.org/2000/svg" xmlns:xlink="http://www.w3.org/1999/xlink" x="0px" y="0px"
	 viewBox="0 0 48 48" style="enable-background:new 0 0 48 48;" xml:space="preserve">
<style type="text/css">
	.st0{fill:#0F3963;}
	.st1{fill:#F27E00;}
</style>
<g>
	<g>
		<path class="st0" d="M22.26,37.81c-3.21-0.03-5.8-0.15-8.33-0.85c-0.48-0.13-0.96-0.29-1.4-0.5c-1.56-0.73-1.88-1.46-1.54-3.16
			c0.48-2.4,1.29-4.66,2.84-6.6c0.52-0.65,1.12-1.19,1.77-1.69c0.88-0.68,1.62-0.97,2.8-0.26c2.29,1.37,4.72,1.14,6.97-0.29
			c0.51-0.33,0.85-0.3,1.33-0.03c3.02,1.76,4.45,4.6,5.29,7.83c0.79,3.05,0.29,3.87-2.82,4.72c-0.89,0.24-1.8,0.45-2.72,0.55
			C24.87,37.7,23.27,37.86,22.26,37.81z"/>
		<path class="st0" d="M16.15,18.51c0.04-3.06,2.49-5.41,5.59-5.36c2.99,0.05,5.38,2.5,5.36,5.5c-0.02,3.01-2.54,5.48-5.56,5.44
			C18.49,24.06,16.11,21.59,16.15,18.51z"/>
	</g>
	<g>
		<polygon class="st1" points="28.01,18.78 28.01,18.78 28.01,18.78 		"/>
		<path class="st1" d="M36.99,13c-0.17-1.39-1.01-2.22-2.34-2.53c-1.69-0.4-3.38-0.4-5.05,0.08c-0.98,0.28-1.75,0.88-1.94,1.93
			c-0.31,1.73-0.46,3.47-0.03,5.17c0.23,0.9,0.81,1.7,1.67,2.03c0.36,0.14,0.75,0.22,1.16,0.26c1.01,0.09,1.08,0.25,0.5,1.16
			c-0.19,0.15-0.37,0.29-0.48,0.51c0.11,0.27,0.33,0.14,0.49,0.1c0.78-0.21,1.51-0.56,2-1.22c0.31-0.42,0.66-0.53,1.16-0.57
			c1.73-0.15,2.58-0.92,2.84-2.65C37.2,15.85,37.17,14.42,36.99,13z M32.32,18.16c-0.38,0.02-0.64-0.14-0.67-0.54
			c-0.03-0.39,0.23-0.57,0.5-0.65c0.46,0.02,0.69,0.23,0.7,0.6C32.86,17.91,32.68,18.14,32.32,18.16z M32.85,13.51
			c-0.09,0.88-0.15,1.56-0.22,2.24c-0.02,0.24-0.1,0.46-0.36,0.49c-0.33,0.04-0.42-0.26-0.44-0.49c-0.08-0.99-0.14-1.97-0.19-2.96
			c-0.02-0.42,0.2-0.71,0.62-0.73c0.48-0.02,0.56,0.36,0.58,0.73C32.86,13.09,32.85,13.39,32.85,13.51z"/>
	</g>
</g>
</svg>
