<?xml version="1.0" encoding="utf-8"?>
<!-- Generator: Adobe Illustrator 26.0.0, SVG Export Plug-In . SVG Version: 6.00 Build 0)  -->
<svg version="1.1" id="Layer_1" xmlns="http://www.w3.org/2000/svg" xmlns:xlink="http://www.w3.org/1999/xlink" x="0px" y="0px"
	 viewBox="0 0 48 48" style="enable-background:new 0 0 48 48;" xml:space="preserve">
<style type="text/css">
	.st0{fill:#F27E00;}
	.st1{fill:#F2F2F2;}
	.st2{fill:#777777;}
	.st3{fill:#0F3963;}
</style>
<g>
	<g>
		<g>
			<g>
				<g>
					<path class="st0" d="M16.52,16.01c0,0.22-0.18,0.39-0.39,0.39h-0.87c-0.22,0-0.39-0.18-0.39-0.39v-2.78
						c0-0.22,0.18-0.39,0.39-0.39h0.87c0.22,0,0.39,0.18,0.39,0.39V16.01z"/>
					<path class="st0" d="M19.91,16.01c0,0.22-0.18,0.39-0.39,0.39h-0.87c-0.22,0-0.39-0.18-0.39-0.39v-2.78
						c0-0.22,0.18-0.39,0.39-0.39h0.87c0.22,0,0.39,0.18,0.39,0.39V16.01z"/>
					<path class="st0" d="M23.3,16.01c0,0.22-0.18,0.39-0.39,0.39h-0.87c-0.22,0-0.39-0.18-0.39-0.39v-2.78
						c0-0.22,0.18-0.39,0.39-0.39h0.87c0.22,0,0.39,0.18,0.39,0.39V16.01z"/>
					<path class="st0" d="M26.7,16.01c0,0.22-0.18,0.39-0.39,0.39h-0.87c-0.22,0-0.39-0.18-0.39-0.39v-2.78
						c0-0.22,0.18-0.39,0.39-0.39h0.87c0.22,0,0.39,0.18,0.39,0.39V16.01z"/>
					<path class="st0" d="M30.09,16.01c0,0.22-0.18,0.39-0.39,0.39h-0.87c-0.22,0-0.39-0.18-0.39-0.39v-2.78
						c0-0.22,0.18-0.39,0.39-0.39h0.87c0.22,0,0.39,0.18,0.39,0.39V16.01z"/>
					<path class="st0" d="M33.48,16.01c0,0.22-0.18,0.39-0.39,0.39h-0.87c-0.22,0-0.39-0.18-0.39-0.39v-2.78
						c0-0.22,0.18-0.39,0.39-0.39h0.87c0.22,0,0.39,0.18,0.39,0.39V16.01z"/>
					<path class="st0" d="M36.88,16.01c0,0.22-0.18,0.39-0.39,0.39h-0.87c-0.22,0-0.39-0.18-0.39-0.39v-2.78
						c0-0.22,0.18-0.39,0.39-0.39h0.87c0.22,0,0.39,0.18,0.39,0.39V16.01z"/>
				</g>
				<path class="st1" d="M39,33.62c0,0.44-0.36,0.79-0.79,0.79H14.02c-0.44,0-0.79-0.36-0.79-0.79V16c0-0.44,0.36-0.79,0.79-0.79
					h24.18c0.44,0,0.79,0.36,0.79,0.79V33.62z"/>
				<path class="st0" d="M39,20.31V16c0-0.44-0.36-0.79-0.79-0.79H14.02c-0.44,0-0.79,0.36-0.79,0.79v4.31H39z"/>
				<g>
					<path class="st2" d="M18.87,23.84c0,0.22-0.18,0.39-0.39,0.39h-2.35c-0.22,0-0.39-0.18-0.39-0.39v-1.37
						c0-0.22,0.18-0.39,0.39-0.39h2.35c0.22,0,0.39,0.18,0.39,0.39V23.84z"/>
					<path class="st2" d="M23.17,23.84c0,0.22-0.18,0.39-0.39,0.39h-2.35c-0.22,0-0.39-0.18-0.39-0.39v-1.37
						c0-0.22,0.18-0.39,0.39-0.39h2.35c0.22,0,0.39,0.18,0.39,0.39V23.84z"/>
					<path class="st2" d="M27.48,23.84c0,0.22-0.18,0.39-0.39,0.39h-2.35c-0.22,0-0.39-0.18-0.39-0.39v-1.37
						c0-0.22,0.18-0.39,0.39-0.39h2.35c0.22,0,0.39,0.18,0.39,0.39V23.84z"/>
					<path class="st2" d="M31.79,23.84c0,0.22-0.18,0.39-0.39,0.39h-2.35c-0.22,0-0.39-0.18-0.39-0.39v-1.37
						c0-0.22,0.18-0.39,0.39-0.39h2.35c0.22,0,0.39,0.18,0.39,0.39V23.84z"/>
					<path class="st2" d="M36.1,23.84c0,0.22-0.18,0.39-0.39,0.39h-2.35c-0.22,0-0.39-0.18-0.39-0.39v-1.37
						c0-0.22,0.18-0.39,0.39-0.39h2.35c0.22,0,0.39,0.18,0.39,0.39V23.84z"/>
				</g>
				<g>
					<path class="st2" d="M18.87,27.57c0,0.22-0.18,0.39-0.39,0.39h-2.35c-0.22,0-0.39-0.18-0.39-0.39V26.2
						c0-0.22,0.18-0.39,0.39-0.39h2.35c0.22,0,0.39,0.18,0.39,0.39V27.57z"/>
					<path class="st2" d="M23.17,27.57c0,0.22-0.18,0.39-0.39,0.39h-2.35c-0.22,0-0.39-0.18-0.39-0.39V26.2
						c0-0.22,0.18-0.39,0.39-0.39h2.35c0.22,0,0.39,0.18,0.39,0.39V27.57z"/>
					<path class="st2" d="M27.48,27.57c0,0.22-0.18,0.39-0.39,0.39h-2.35c-0.22,0-0.39-0.18-0.39-0.39V26.2
						c0-0.22,0.18-0.39,0.39-0.39h2.35c0.22,0,0.39,0.18,0.39,0.39V27.57z"/>
					<path class="st2" d="M31.79,27.57c0,0.22-0.18,0.39-0.39,0.39h-2.35c-0.22,0-0.39-0.18-0.39-0.39V26.2
						c0-0.22,0.18-0.39,0.39-0.39h2.35c0.22,0,0.39,0.18,0.39,0.39V27.57z"/>
					<path class="st2" d="M36.1,27.57c0,0.22-0.18,0.39-0.39,0.39h-2.35c-0.22,0-0.39-0.18-0.39-0.39V26.2
						c0-0.22,0.18-0.39,0.39-0.39h2.35c0.22,0,0.39,0.18,0.39,0.39V27.57z"/>
				</g>
				<g>
					<path class="st2" d="M18.87,31.3c0,0.22-0.18,0.39-0.39,0.39h-2.35c-0.22,0-0.39-0.18-0.39-0.39v-1.37
						c0-0.22,0.18-0.39,0.39-0.39h2.35c0.22,0,0.39,0.18,0.39,0.39V31.3z"/>
					<path class="st2" d="M23.17,31.3c0,0.22-0.18,0.39-0.39,0.39h-2.35c-0.22,0-0.39-0.18-0.39-0.39v-1.37
						c0-0.22,0.18-0.39,0.39-0.39h2.35c0.22,0,0.39,0.18,0.39,0.39V31.3z"/>
					<path class="st2" d="M27.48,31.3c0,0.22-0.18,0.39-0.39,0.39h-2.35c-0.22,0-0.39-0.18-0.39-0.39v-1.37
						c0-0.22,0.18-0.39,0.39-0.39h2.35c0.22,0,0.39,0.18,0.39,0.39V31.3z"/>
					<path class="st2" d="M31.79,31.3c0,0.22-0.18,0.39-0.39,0.39h-2.35c-0.22,0-0.39-0.18-0.39-0.39v-1.37
						c0-0.22,0.18-0.39,0.39-0.39h2.35c0.22,0,0.39,0.18,0.39,0.39V31.3z"/>
					<path class="st2" d="M36.1,31.3c0,0.22-0.18,0.39-0.39,0.39h-2.35c-0.22,0-0.39-0.18-0.39-0.39v-1.37
						c0-0.22,0.18-0.39,0.39-0.39h2.35c0.22,0,0.39,0.18,0.39,0.39V31.3z"/>
				</g>
			</g>
		</g>
	</g>
	<g>
		<g>
			<path class="st3" d="M21.02,29.18c-0.02,3.32-2.72,6-6.04,5.98c-3.32-0.02-6-2.72-5.98-6.04c0.02-3.32,2.72-6,6.04-5.98
				C18.36,23.16,21.04,25.86,21.02,29.18z"/>
		</g>
		<g>
			<path class="st1" d="M20.49,29.18c-0.02,3.03-2.48,5.47-5.51,5.45c-3.03-0.02-5.47-2.48-5.45-5.51c0.02-3.03,2.48-5.47,5.51-5.45
				C18.07,23.69,20.51,26.15,20.49,29.18z"/>
		</g>
		<g>
			<polygon class="st3" points="15.17,29.08 15.04,26.92 14.9,29.08 			"/>
		</g>
		<g>
			<polygon class="st3" points="15.03,29.01 11.6,29.13 15.03,29.28 			"/>
		</g>
		<g>
			
				<rect x="14.25" y="25.75" transform="matrix(0.8663 -0.4995 0.4995 0.8663 -12.022 10.8651)" class="st3" width="0.06" height="4.27"/>
		</g>
		<g>
			<path class="st3" d="M15.32,29.15c0,0.16-0.13,0.29-0.29,0.29c-0.16,0-0.29-0.13-0.29-0.29c0-0.16,0.13-0.29,0.29-0.29
				C15.2,28.86,15.32,28.99,15.32,29.15z"/>
		</g>
		<g>
			<path class="st3" d="M15.06,34.32c-0.21,0-0.42-0.01-0.61-0.03c-0.08-0.01-0.14-0.08-0.13-0.17c0.01-0.08,0.09-0.15,0.17-0.14
				c0.4,0.04,0.83,0.04,1.28-0.01l0.03,0l0.01,0c0.06,0,0.12,0.05,0.13,0.11c0.02,0.08-0.02,0.16-0.1,0.19c-0.01,0-0.02,0-0.03,0.01
				C15.54,34.3,15.3,34.32,15.06,34.32z M13.19,33.99c-0.02,0-0.04,0-0.05-0.01c-0.43-0.16-0.83-0.38-1.19-0.64
				c-0.07-0.05-0.08-0.14-0.03-0.21s0.14-0.08,0.21-0.03c0.34,0.25,0.72,0.45,1.12,0.6c0.08,0.03,0.12,0.12,0.09,0.19
				C13.31,33.96,13.25,33.99,13.19,33.99z M17.04,33.91c-0.06,0-0.11-0.03-0.14-0.09c-0.03-0.08,0-0.17,0.08-0.2
				c0.39-0.17,0.76-0.39,1.09-0.66c0.07-0.05,0.16-0.04,0.21,0.02c0.05,0.07,0.04,0.16-0.02,0.21c-0.36,0.28-0.75,0.52-1.16,0.7
				C17.08,33.91,17.06,33.91,17.04,33.91z M11.1,32.45c-0.05,0-0.09-0.02-0.12-0.06c-0.27-0.35-0.5-0.75-0.68-1.17
				c-0.03-0.08,0-0.17,0.08-0.2c0.08-0.03,0.17,0,0.2,0.08c0.17,0.4,0.38,0.77,0.64,1.1c0.05,0.07,0.04,0.16-0.03,0.21
				C11.16,32.44,11.13,32.45,11.1,32.45z M19.08,32.29c-0.03,0-0.06-0.01-0.09-0.03c-0.07-0.05-0.08-0.14-0.03-0.21
				c0.25-0.34,0.46-0.72,0.62-1.11c0.03-0.08,0.12-0.11,0.2-0.09c0.08,0.03,0.12,0.12,0.09,0.2c-0.17,0.42-0.39,0.82-0.66,1.18
				C19.17,32.27,19.13,32.29,19.08,32.29z M10.08,30.05c-0.07,0-0.14-0.05-0.15-0.13c-0.04-0.27-0.06-0.55-0.06-0.83
				c0-0.17,0.01-0.35,0.02-0.52c0.01-0.08,0.08-0.14,0.17-0.14c0.08,0.01,0.14,0.08,0.14,0.17c-0.02,0.16-0.02,0.33-0.02,0.49
				c0,0.26,0.02,0.52,0.06,0.78c0.01,0.08-0.04,0.16-0.13,0.17C10.1,30.05,10.09,30.05,10.08,30.05z M20.04,29.87
				c-0.01,0-0.01,0-0.02,0c-0.08-0.01-0.14-0.08-0.13-0.17c0.02-0.18,0.03-0.37,0.03-0.55c0-0.24-0.02-0.48-0.05-0.72
				c-0.01-0.08,0.04-0.17,0.12-0.19c0.08-0.02,0.16,0.03,0.17,0.11c0,0,0,0.03,0,0.03c0.04,0.25,0.06,0.51,0.06,0.77
				c0,0.19-0.01,0.39-0.03,0.58C20.18,29.81,20.11,29.87,20.04,29.87z M10.34,27.45c-0.02,0-0.04,0-0.05-0.01
				c-0.08-0.03-0.12-0.12-0.09-0.19c0.16-0.43,0.38-0.83,0.64-1.19c0.05-0.07,0.15-0.08,0.21-0.03c0.07,0.05,0.08,0.14,0.03,0.21
				c-0.25,0.34-0.45,0.72-0.6,1.12C10.46,27.42,10.4,27.45,10.34,27.45z M19.64,27.27c-0.06,0-0.11-0.03-0.14-0.09
				c-0.17-0.39-0.39-0.76-0.66-1.09c-0.05-0.07-0.04-0.16,0.02-0.21c0.06-0.05,0.16-0.04,0.21,0.02c0.28,0.35,0.52,0.74,0.7,1.16
				c0.03,0.08,0,0.17-0.08,0.2C19.68,27.26,19.66,27.27,19.64,27.27z M11.88,25.36c-0.05,0-0.09-0.02-0.12-0.06
				c-0.05-0.07-0.04-0.16,0.03-0.21c0.35-0.27,0.74-0.5,1.17-0.68c0.08-0.03,0.17,0,0.2,0.08c0.03,0.08,0,0.17-0.08,0.2
				c-0.4,0.17-0.77,0.39-1.1,0.64C11.94,25.35,11.91,25.36,11.88,25.36z M18.01,25.24c-0.03,0-0.06-0.01-0.09-0.03
				c-0.34-0.25-0.72-0.46-1.12-0.61c-0.08-0.03-0.12-0.12-0.09-0.2c0.03-0.08,0.12-0.12,0.2-0.09c0.42,0.16,0.82,0.38,1.19,0.65
				c0.07,0.05,0.08,0.14,0.03,0.21C18.1,25.21,18.06,25.24,18.01,25.24z M14.29,24.32c-0.07,0-0.15-0.05-0.16-0.12
				c-0.01-0.08,0.03-0.16,0.11-0.17c0,0,0.03-0.01,0.03-0.01c0.44-0.06,0.89-0.07,1.33-0.03c0.08,0.01,0.14,0.08,0.13,0.17
				c-0.01,0.08-0.09,0.14-0.17,0.13c-0.41-0.04-0.83-0.04-1.25,0.03C14.31,24.32,14.3,24.32,14.29,24.32z"/>
		</g>
	</g>
</g>
</svg>
