<?xml version="1.0" encoding="utf-8"?>
<!-- Generator: Adobe Illustrator 26.0.0, SVG Export Plug-In . SVG Version: 6.00 Build 0)  -->
<svg version="1.1" id="Layer_1" xmlns="http://www.w3.org/2000/svg" xmlns:xlink="http://www.w3.org/1999/xlink" x="0px" y="0px"
	 viewBox="0 0 48 48" style="enable-background:new 0 0 48 48;" xml:space="preserve">
<style type="text/css">
	.st0{fill:#F27E00;}
	.st1{fill:#0F3963;}
</style>
<g>
	<path class="st0" d="M26.82,26.56c1.38-0.92,2.29-2.48,2.29-4.26c0-2.82-2.29-5.11-5.11-5.11c-2.82,0-5.11,2.29-5.11,5.11
		c0,1.78,0.91,3.34,2.29,4.26c-3.12,1.15-5.36,4.15-5.36,7.67h1.36c0-3.76,3.06-6.82,6.82-6.82c3.76,0,6.82,3.06,6.82,6.82h1.36
		C32.18,30.71,29.94,27.71,26.82,26.56z M20.25,22.3c0-2.07,1.68-3.75,3.75-3.75c2.07,0,3.75,1.68,3.75,3.75s-1.68,3.75-3.75,3.75
		C21.93,26.05,20.25,24.36,20.25,22.3z"/>
	<path class="st1" d="M33.64,23.15c1.38-0.92,2.29-2.48,2.29-4.26c0-2.82-2.29-5.11-5.11-5.11c-1.37,0-2.61,0.54-3.52,1.42
		c-0.34,0.32-0.63,0.69-0.87,1.1c0.43,0.17,0.83,0.38,1.21,0.64c0.24-0.39,0.55-0.74,0.92-1.02c0.63-0.49,1.42-0.78,2.28-0.78
		c2.07,0,3.75,1.68,3.75,3.75c0,1.72-1.16,3.16-2.74,3.61c-0.32,0.09-0.66,0.14-1.01,0.14c-0.12,0-0.24-0.01-0.36-0.02
		c-0.02,0.49-0.1,0.97-0.23,1.42c0.19-0.02,0.39-0.04,0.59-0.04c0.28,0,0.55,0.02,0.82,0.05c3.38,0.41,6,3.28,6,6.76H39
		C39,27.3,36.76,24.3,33.64,23.15z"/>
	<path class="st1" d="M17.18,24c0.2,0,0.39,0.03,0.59,0.04c-0.13-0.46-0.21-0.93-0.23-1.42c-0.12,0.01-0.24,0.02-0.36,0.02
		c-0.35,0-0.69-0.05-1.01-0.14c-1.58-0.44-2.74-1.89-2.74-3.61c0-2.07,1.68-3.75,3.75-3.75c0.86,0,1.65,0.29,2.28,0.78
		c0.36,0.28,0.67,0.62,0.92,1.02c0.38-0.25,0.78-0.47,1.21-0.64c-0.24-0.41-0.53-0.78-0.87-1.1c-0.92-0.88-2.16-1.42-3.52-1.42
		c-2.82,0-5.11,2.29-5.11,5.11c0,1.78,0.91,3.34,2.29,4.26C11.24,24.3,9,27.3,9,30.82h1.36c0-3.48,2.63-6.36,6-6.76
		C16.63,24.02,16.9,24,17.18,24z"/>
</g>
</svg>
